G04 #@! TF.GenerationSoftware,KiCad,Pcbnew,(5.0.2)-1*
G04 #@! TF.CreationDate,2019-04-02T22:15:29-07:00*
G04 #@! TF.ProjectId,5670-6922-adapter,35363730-2d36-4393-9232-2d6164617074,rev?*
G04 #@! TF.SameCoordinates,Original*
G04 #@! TF.FileFunction,Soldermask,Top*
G04 #@! TF.FilePolarity,Negative*
%FSLAX46Y46*%
G04 Gerber Fmt 4.6, Leading zero omitted, Abs format (unit mm)*
G04 Created by KiCad (PCBNEW (5.0.2)-1) date 4/2/2019 10:15:29 PM*
%MOMM*%
%LPD*%
G01*
G04 APERTURE LIST*
%ADD10C,0.100000*%
G04 APERTURE END LIST*
D10*
G36*
X88915711Y-86528347D02*
X89114104Y-86597143D01*
X89249873Y-86676719D01*
X90159793Y-87337813D01*
X90277429Y-87442346D01*
X90367091Y-87560793D01*
X90404164Y-87609768D01*
X90404164Y-87609769D01*
X90404165Y-87609770D01*
X90495802Y-87798697D01*
X90548824Y-88001883D01*
X90561185Y-88211499D01*
X90532415Y-88419503D01*
X90463619Y-88617896D01*
X90357438Y-88799057D01*
X90217956Y-88956023D01*
X90077114Y-89062637D01*
X90050533Y-89082758D01*
X89927956Y-89142212D01*
X89861600Y-89174397D01*
X89658418Y-89227418D01*
X89448802Y-89239779D01*
X89240798Y-89211009D01*
X89042405Y-89142213D01*
X88906636Y-89062637D01*
X88294503Y-88617897D01*
X87996718Y-88401544D01*
X87981973Y-88388441D01*
X87879081Y-88297010D01*
X87752348Y-88129590D01*
X87752347Y-88129588D01*
X87752346Y-88129587D01*
X87660707Y-87940654D01*
X87607686Y-87737472D01*
X87595325Y-87527857D01*
X87624095Y-87319853D01*
X87692891Y-87121460D01*
X87799072Y-86940299D01*
X87938554Y-86783333D01*
X88105974Y-86656600D01*
X88105975Y-86656600D01*
X88105977Y-86656598D01*
X88294910Y-86564959D01*
X88498092Y-86511938D01*
X88707707Y-86499577D01*
X88915711Y-86528347D01*
X88915711Y-86528347D01*
G37*
G36*
X102001908Y-86511938D02*
X102205090Y-86564959D01*
X102394023Y-86656598D01*
X102394025Y-86656600D01*
X102394026Y-86656600D01*
X102561446Y-86783333D01*
X102700928Y-86940299D01*
X102807109Y-87121460D01*
X102875905Y-87319853D01*
X102904675Y-87527857D01*
X102892314Y-87737473D01*
X102839292Y-87940659D01*
X102809595Y-88001884D01*
X102747654Y-88129588D01*
X102747652Y-88129590D01*
X102620919Y-88297010D01*
X102503283Y-88401543D01*
X101593363Y-89062637D01*
X101457594Y-89142213D01*
X101259201Y-89211009D01*
X101051197Y-89239779D01*
X100841582Y-89227418D01*
X100638400Y-89174397D01*
X100572044Y-89142212D01*
X100449467Y-89082758D01*
X100422886Y-89062637D01*
X100282044Y-88956023D01*
X100142562Y-88799057D01*
X100036381Y-88617896D01*
X99967585Y-88419503D01*
X99938815Y-88211499D01*
X99951176Y-88001884D01*
X100004197Y-87798702D01*
X100095836Y-87609770D01*
X100095836Y-87609769D01*
X100095838Y-87609766D01*
X100222571Y-87442346D01*
X100340207Y-87337813D01*
X100364927Y-87319853D01*
X101250126Y-86676719D01*
X101284456Y-86656598D01*
X101385895Y-86597143D01*
X101584288Y-86528347D01*
X101792292Y-86499577D01*
X102001908Y-86511938D01*
X102001908Y-86511938D01*
G37*
G36*
X99055324Y-83159571D02*
X99249320Y-83239927D01*
X99423922Y-83356593D01*
X99572396Y-83505067D01*
X99689062Y-83679669D01*
X99769418Y-83873665D01*
X99810383Y-84079613D01*
X99810383Y-84289599D01*
X99769418Y-84495547D01*
X99689062Y-84689543D01*
X99572396Y-84864145D01*
X99423922Y-85012619D01*
X99249320Y-85129285D01*
X99055324Y-85209641D01*
X98849376Y-85250606D01*
X98639390Y-85250606D01*
X98433442Y-85209641D01*
X98239446Y-85129285D01*
X98064844Y-85012619D01*
X97916370Y-84864145D01*
X97799704Y-84689543D01*
X97719348Y-84495547D01*
X97678383Y-84289599D01*
X97678383Y-84079613D01*
X97719348Y-83873665D01*
X97799704Y-83679669D01*
X97916370Y-83505067D01*
X98064844Y-83356593D01*
X98239446Y-83239927D01*
X98433442Y-83159571D01*
X98639390Y-83118606D01*
X98849376Y-83118606D01*
X99055324Y-83159571D01*
X99055324Y-83159571D01*
G37*
G36*
X92066558Y-83159571D02*
X92260554Y-83239927D01*
X92435156Y-83356593D01*
X92583630Y-83505067D01*
X92700296Y-83679669D01*
X92780652Y-83873665D01*
X92821617Y-84079613D01*
X92821617Y-84289599D01*
X92780652Y-84495547D01*
X92700296Y-84689543D01*
X92583630Y-84864145D01*
X92435156Y-85012619D01*
X92260554Y-85129285D01*
X92066558Y-85209641D01*
X91860610Y-85250606D01*
X91650624Y-85250606D01*
X91444676Y-85209641D01*
X91250680Y-85129285D01*
X91076078Y-85012619D01*
X90927604Y-84864145D01*
X90810938Y-84689543D01*
X90730582Y-84495547D01*
X90689617Y-84289599D01*
X90689617Y-84079613D01*
X90730582Y-83873665D01*
X90810938Y-83679669D01*
X90927604Y-83505067D01*
X91076078Y-83356593D01*
X91250680Y-83239927D01*
X91444676Y-83159571D01*
X91650624Y-83118606D01*
X91860610Y-83118606D01*
X92066558Y-83159571D01*
X92066558Y-83159571D01*
G37*
G36*
X85213432Y-81070907D02*
X85397063Y-81103699D01*
X85428259Y-81115909D01*
X85592601Y-81180230D01*
X85769454Y-81293442D01*
X85920822Y-81438979D01*
X86040888Y-81611248D01*
X86103954Y-81755429D01*
X86451512Y-82825101D01*
X86485239Y-82978817D01*
X86489361Y-83188759D01*
X86452446Y-83395472D01*
X86375915Y-83591010D01*
X86319162Y-83679666D01*
X86262704Y-83767863D01*
X86262701Y-83767866D01*
X86117169Y-83919230D01*
X85944897Y-84039297D01*
X85899561Y-84059127D01*
X85752512Y-84123448D01*
X85599650Y-84156987D01*
X85547405Y-84168450D01*
X85345873Y-84172407D01*
X85337464Y-84172572D01*
X85337462Y-84172572D01*
X85130752Y-84135658D01*
X84935213Y-84059127D01*
X84833303Y-83993889D01*
X84758361Y-83945915D01*
X84606993Y-83800378D01*
X84584331Y-83767863D01*
X84486925Y-83628106D01*
X84423862Y-83483931D01*
X84209795Y-82825101D01*
X84076302Y-82414254D01*
X84042576Y-82260541D01*
X84042575Y-82260538D01*
X84038454Y-82050597D01*
X84075368Y-81843885D01*
X84151899Y-81648346D01*
X84265111Y-81471493D01*
X84410648Y-81320125D01*
X84582917Y-81200059D01*
X84775302Y-81115909D01*
X84980408Y-81070906D01*
X85186228Y-81066866D01*
X85190349Y-81066785D01*
X85190350Y-81066785D01*
X85213432Y-81070907D01*
X85213432Y-81070907D01*
G37*
G36*
X105318059Y-81066949D02*
X105519591Y-81070906D01*
X105571836Y-81082369D01*
X105724698Y-81115908D01*
X105858539Y-81174452D01*
X105917083Y-81200059D01*
X106089355Y-81320126D01*
X106203628Y-81438978D01*
X106234890Y-81471493D01*
X106267891Y-81523047D01*
X106348101Y-81648346D01*
X106424632Y-81843884D01*
X106461547Y-82050597D01*
X106457425Y-82260539D01*
X106423698Y-82414255D01*
X106076140Y-83483927D01*
X106013074Y-83628108D01*
X105893008Y-83800377D01*
X105741640Y-83945914D01*
X105564787Y-84059126D01*
X105407514Y-84120680D01*
X105369249Y-84135657D01*
X105265892Y-84154114D01*
X105162536Y-84172571D01*
X105162535Y-84172571D01*
X105158414Y-84172490D01*
X104952594Y-84168450D01*
X104747488Y-84123447D01*
X104555103Y-84039297D01*
X104382834Y-83919231D01*
X104237297Y-83767863D01*
X104124085Y-83591010D01*
X104047554Y-83395471D01*
X104010640Y-83188759D01*
X104014761Y-82978818D01*
X104028867Y-82914527D01*
X104048488Y-82825102D01*
X104303545Y-82040119D01*
X104396048Y-81755425D01*
X104459111Y-81611250D01*
X104579178Y-81438979D01*
X104579179Y-81438978D01*
X104730547Y-81293441D01*
X104805489Y-81245467D01*
X104907399Y-81180229D01*
X105102938Y-81103698D01*
X105309648Y-81066784D01*
X105309650Y-81066784D01*
X105318059Y-81066949D01*
X105318059Y-81066949D01*
G37*
G36*
X101214972Y-80187071D02*
X101408968Y-80267427D01*
X101583570Y-80384093D01*
X101732044Y-80532567D01*
X101848710Y-80707169D01*
X101929066Y-80901165D01*
X101970031Y-81107113D01*
X101970031Y-81317099D01*
X101929066Y-81523047D01*
X101848710Y-81717043D01*
X101848708Y-81717046D01*
X101763957Y-81843885D01*
X101732044Y-81891645D01*
X101583570Y-82040119D01*
X101583567Y-82040121D01*
X101583566Y-82040122D01*
X101408971Y-82156783D01*
X101408968Y-82156785D01*
X101214972Y-82237141D01*
X101009024Y-82278106D01*
X100799038Y-82278106D01*
X100593090Y-82237141D01*
X100399094Y-82156785D01*
X100399091Y-82156783D01*
X100224496Y-82040122D01*
X100224495Y-82040121D01*
X100224492Y-82040119D01*
X100076018Y-81891645D01*
X100044106Y-81843885D01*
X99959354Y-81717046D01*
X99959352Y-81717043D01*
X99878996Y-81523047D01*
X99838031Y-81317099D01*
X99838031Y-81107113D01*
X99878996Y-80901165D01*
X99959352Y-80707169D01*
X100076018Y-80532567D01*
X100224492Y-80384093D01*
X100399094Y-80267427D01*
X100593090Y-80187071D01*
X100799038Y-80146106D01*
X101009024Y-80146106D01*
X101214972Y-80187071D01*
X101214972Y-80187071D01*
G37*
G36*
X89906910Y-80187071D02*
X90100906Y-80267427D01*
X90275508Y-80384093D01*
X90423982Y-80532567D01*
X90540648Y-80707169D01*
X90621004Y-80901165D01*
X90661969Y-81107113D01*
X90661969Y-81317099D01*
X90621004Y-81523047D01*
X90540648Y-81717043D01*
X90540646Y-81717046D01*
X90455895Y-81843885D01*
X90423982Y-81891645D01*
X90275508Y-82040119D01*
X90275505Y-82040121D01*
X90275504Y-82040122D01*
X90100909Y-82156783D01*
X90100906Y-82156785D01*
X89906910Y-82237141D01*
X89700962Y-82278106D01*
X89490976Y-82278106D01*
X89285028Y-82237141D01*
X89091032Y-82156785D01*
X89091029Y-82156783D01*
X88916434Y-82040122D01*
X88916433Y-82040121D01*
X88916430Y-82040119D01*
X88767956Y-81891645D01*
X88736044Y-81843885D01*
X88651292Y-81717046D01*
X88651290Y-81717043D01*
X88570934Y-81523047D01*
X88529969Y-81317099D01*
X88529969Y-81107113D01*
X88570934Y-80901165D01*
X88651290Y-80707169D01*
X88767956Y-80532567D01*
X88916430Y-80384093D01*
X89091032Y-80267427D01*
X89285028Y-80187071D01*
X89490976Y-80146106D01*
X89700962Y-80146106D01*
X89906910Y-80187071D01*
X89906910Y-80187071D01*
G37*
G36*
X95775331Y-77643211D02*
X96103092Y-77778974D01*
X96398073Y-77976074D01*
X96648926Y-78226927D01*
X96846026Y-78521908D01*
X96981789Y-78849669D01*
X97051000Y-79197616D01*
X97051000Y-79552384D01*
X96981789Y-79900331D01*
X96846026Y-80228092D01*
X96648926Y-80523073D01*
X96398073Y-80773926D01*
X96103092Y-80971026D01*
X95775331Y-81106789D01*
X95427384Y-81176000D01*
X95072616Y-81176000D01*
X94724669Y-81106789D01*
X94396908Y-80971026D01*
X94101927Y-80773926D01*
X93851074Y-80523073D01*
X93653974Y-80228092D01*
X93518211Y-79900331D01*
X93449000Y-79552384D01*
X93449000Y-79197616D01*
X93518211Y-78849669D01*
X93653974Y-78521908D01*
X93851074Y-78226927D01*
X94101927Y-77976074D01*
X94396908Y-77778974D01*
X94724669Y-77643211D01*
X95072616Y-77574000D01*
X95427384Y-77574000D01*
X95775331Y-77643211D01*
X95775331Y-77643211D01*
G37*
G36*
X101214972Y-76512859D02*
X101408968Y-76593215D01*
X101408971Y-76593217D01*
X101567888Y-76699402D01*
X101583570Y-76709881D01*
X101732044Y-76858355D01*
X101732046Y-76858358D01*
X101732047Y-76858359D01*
X101823061Y-76994571D01*
X101848710Y-77032957D01*
X101929066Y-77226953D01*
X101970031Y-77432901D01*
X101970031Y-77642887D01*
X101929066Y-77848835D01*
X101848710Y-78042831D01*
X101732044Y-78217433D01*
X101583570Y-78365907D01*
X101408968Y-78482573D01*
X101214972Y-78562929D01*
X101009024Y-78603894D01*
X100799038Y-78603894D01*
X100593090Y-78562929D01*
X100399094Y-78482573D01*
X100224492Y-78365907D01*
X100076018Y-78217433D01*
X99959352Y-78042831D01*
X99878996Y-77848835D01*
X99838031Y-77642887D01*
X99838031Y-77432901D01*
X99878996Y-77226953D01*
X99959352Y-77032957D01*
X99985001Y-76994571D01*
X100076015Y-76858359D01*
X100076016Y-76858358D01*
X100076018Y-76858355D01*
X100224492Y-76709881D01*
X100240175Y-76699402D01*
X100399091Y-76593217D01*
X100399094Y-76593215D01*
X100593090Y-76512859D01*
X100799038Y-76471894D01*
X101009024Y-76471894D01*
X101214972Y-76512859D01*
X101214972Y-76512859D01*
G37*
G36*
X89906910Y-76512859D02*
X90100906Y-76593215D01*
X90100909Y-76593217D01*
X90259826Y-76699402D01*
X90275508Y-76709881D01*
X90423982Y-76858355D01*
X90423984Y-76858358D01*
X90423985Y-76858359D01*
X90514999Y-76994571D01*
X90540648Y-77032957D01*
X90621004Y-77226953D01*
X90661969Y-77432901D01*
X90661969Y-77642887D01*
X90621004Y-77848835D01*
X90540648Y-78042831D01*
X90423982Y-78217433D01*
X90275508Y-78365907D01*
X90100906Y-78482573D01*
X89906910Y-78562929D01*
X89700962Y-78603894D01*
X89490976Y-78603894D01*
X89285028Y-78562929D01*
X89091032Y-78482573D01*
X88916430Y-78365907D01*
X88767956Y-78217433D01*
X88651290Y-78042831D01*
X88570934Y-77848835D01*
X88529969Y-77642887D01*
X88529969Y-77432901D01*
X88570934Y-77226953D01*
X88651290Y-77032957D01*
X88676939Y-76994571D01*
X88767953Y-76858359D01*
X88767954Y-76858358D01*
X88767956Y-76858355D01*
X88916430Y-76709881D01*
X88932113Y-76699402D01*
X89091029Y-76593217D01*
X89091032Y-76593215D01*
X89285028Y-76512859D01*
X89490976Y-76471894D01*
X89700962Y-76471894D01*
X89906910Y-76512859D01*
X89906910Y-76512859D01*
G37*
G36*
X105185618Y-74581551D02*
X105369249Y-74614343D01*
X105400445Y-74626553D01*
X105564787Y-74690874D01*
X105741640Y-74804086D01*
X105893008Y-74949623D01*
X106013074Y-75121892D01*
X106076140Y-75266073D01*
X106423698Y-76335745D01*
X106457425Y-76489461D01*
X106461547Y-76699403D01*
X106424632Y-76906116D01*
X106348101Y-77101654D01*
X106284990Y-77200241D01*
X106234890Y-77278507D01*
X106234887Y-77278510D01*
X106089355Y-77429874D01*
X105917083Y-77549941D01*
X105871747Y-77569771D01*
X105724698Y-77634092D01*
X105571836Y-77667631D01*
X105519591Y-77679094D01*
X105318059Y-77683051D01*
X105309650Y-77683216D01*
X105309648Y-77683216D01*
X105102938Y-77646302D01*
X104907399Y-77569771D01*
X104805489Y-77504533D01*
X104730547Y-77456559D01*
X104579179Y-77311022D01*
X104556517Y-77278507D01*
X104459111Y-77138750D01*
X104396048Y-76994575D01*
X104231926Y-76489459D01*
X104048488Y-75924898D01*
X104014762Y-75771185D01*
X104014761Y-75771182D01*
X104010640Y-75561241D01*
X104047554Y-75354529D01*
X104124085Y-75158990D01*
X104237297Y-74982137D01*
X104382834Y-74830769D01*
X104555103Y-74710703D01*
X104747488Y-74626553D01*
X104952594Y-74581550D01*
X105158414Y-74577510D01*
X105162535Y-74577429D01*
X105162536Y-74577429D01*
X105185618Y-74581551D01*
X105185618Y-74581551D01*
G37*
G36*
X85345873Y-74577593D02*
X85547405Y-74581550D01*
X85599650Y-74593013D01*
X85752512Y-74626552D01*
X85886353Y-74685096D01*
X85944897Y-74710703D01*
X86117169Y-74830770D01*
X86160978Y-74876335D01*
X86262704Y-74982137D01*
X86312804Y-75060403D01*
X86375915Y-75158990D01*
X86452446Y-75354528D01*
X86489361Y-75561241D01*
X86485239Y-75771183D01*
X86451512Y-75924899D01*
X86103954Y-76994571D01*
X86040888Y-77138752D01*
X85920822Y-77311021D01*
X85769454Y-77456558D01*
X85592601Y-77569770D01*
X85435329Y-77631324D01*
X85397063Y-77646301D01*
X85293706Y-77664758D01*
X85190350Y-77683215D01*
X85190349Y-77683215D01*
X85186228Y-77683134D01*
X84980408Y-77679094D01*
X84775302Y-77634091D01*
X84582917Y-77549941D01*
X84410648Y-77429875D01*
X84265111Y-77278507D01*
X84151899Y-77101654D01*
X84075368Y-76906115D01*
X84038454Y-76699403D01*
X84042575Y-76489462D01*
X84056681Y-76425171D01*
X84076302Y-76335746D01*
X84344581Y-75510071D01*
X84423862Y-75266069D01*
X84486925Y-75121894D01*
X84606992Y-74949623D01*
X84606993Y-74949622D01*
X84758361Y-74804085D01*
X84833303Y-74756111D01*
X84935213Y-74690873D01*
X85130752Y-74614342D01*
X85337462Y-74577428D01*
X85337464Y-74577428D01*
X85345873Y-74577593D01*
X85345873Y-74577593D01*
G37*
G36*
X92066558Y-73540359D02*
X92260554Y-73620715D01*
X92435156Y-73737381D01*
X92583630Y-73885855D01*
X92700296Y-74060457D01*
X92780652Y-74254453D01*
X92821617Y-74460401D01*
X92821617Y-74670387D01*
X92780652Y-74876335D01*
X92700296Y-75070331D01*
X92583630Y-75244933D01*
X92435156Y-75393407D01*
X92260554Y-75510073D01*
X92066558Y-75590429D01*
X91860610Y-75631394D01*
X91650624Y-75631394D01*
X91444676Y-75590429D01*
X91250680Y-75510073D01*
X91076078Y-75393407D01*
X90927604Y-75244933D01*
X90810938Y-75070331D01*
X90730582Y-74876335D01*
X90689617Y-74670387D01*
X90689617Y-74460401D01*
X90730582Y-74254453D01*
X90810938Y-74060457D01*
X90927604Y-73885855D01*
X91076078Y-73737381D01*
X91250680Y-73620715D01*
X91444676Y-73540359D01*
X91650624Y-73499394D01*
X91860610Y-73499394D01*
X92066558Y-73540359D01*
X92066558Y-73540359D01*
G37*
G36*
X99055324Y-73540359D02*
X99249320Y-73620715D01*
X99423922Y-73737381D01*
X99572396Y-73885855D01*
X99689062Y-74060457D01*
X99769418Y-74254453D01*
X99810383Y-74460401D01*
X99810383Y-74670387D01*
X99769418Y-74876335D01*
X99689062Y-75070331D01*
X99572396Y-75244933D01*
X99423922Y-75393407D01*
X99249320Y-75510073D01*
X99055324Y-75590429D01*
X98849376Y-75631394D01*
X98639390Y-75631394D01*
X98433442Y-75590429D01*
X98239446Y-75510073D01*
X98064844Y-75393407D01*
X97916370Y-75244933D01*
X97799704Y-75070331D01*
X97719348Y-74876335D01*
X97678383Y-74670387D01*
X97678383Y-74460401D01*
X97719348Y-74254453D01*
X97799704Y-74060457D01*
X97916370Y-73885855D01*
X98064844Y-73737381D01*
X98239446Y-73620715D01*
X98433442Y-73540359D01*
X98639390Y-73499394D01*
X98849376Y-73499394D01*
X99055324Y-73540359D01*
X99055324Y-73540359D01*
G37*
G36*
X95560941Y-72404965D02*
X95754937Y-72485321D01*
X95929539Y-72601987D01*
X96078013Y-72750461D01*
X96194679Y-72925063D01*
X96275035Y-73119059D01*
X96316000Y-73325007D01*
X96316000Y-73534993D01*
X96275035Y-73740941D01*
X96194679Y-73934937D01*
X96078013Y-74109539D01*
X95929539Y-74258013D01*
X95754937Y-74374679D01*
X95560941Y-74455035D01*
X95354993Y-74496000D01*
X95145007Y-74496000D01*
X94939059Y-74455035D01*
X94745063Y-74374679D01*
X94570461Y-74258013D01*
X94421987Y-74109539D01*
X94305321Y-73934937D01*
X94224965Y-73740941D01*
X94184000Y-73534993D01*
X94184000Y-73325007D01*
X94224965Y-73119059D01*
X94305321Y-72925063D01*
X94421987Y-72750461D01*
X94570461Y-72601987D01*
X94745063Y-72485321D01*
X94939059Y-72404965D01*
X95145007Y-72364000D01*
X95354993Y-72364000D01*
X95560941Y-72404965D01*
X95560941Y-72404965D01*
G37*
G36*
X101259201Y-69538991D02*
X101457594Y-69607787D01*
X101559033Y-69667242D01*
X101593363Y-69687363D01*
X101921235Y-69925575D01*
X102503283Y-70348457D01*
X102620919Y-70452990D01*
X102710581Y-70571437D01*
X102747654Y-70620412D01*
X102747654Y-70620413D01*
X102747655Y-70620414D01*
X102839292Y-70809341D01*
X102892314Y-71012527D01*
X102904675Y-71222143D01*
X102875905Y-71430147D01*
X102807109Y-71628540D01*
X102700928Y-71809701D01*
X102561446Y-71966667D01*
X102420604Y-72073281D01*
X102394023Y-72093402D01*
X102271446Y-72152856D01*
X102205090Y-72185041D01*
X102001908Y-72238062D01*
X101792292Y-72250423D01*
X101584288Y-72221653D01*
X101385895Y-72152857D01*
X101250126Y-72073281D01*
X100637993Y-71628541D01*
X100340208Y-71412188D01*
X100325463Y-71399085D01*
X100222571Y-71307654D01*
X100095838Y-71140234D01*
X100095837Y-71140232D01*
X100095836Y-71140231D01*
X100004197Y-70951298D01*
X99951176Y-70748116D01*
X99938815Y-70538501D01*
X99967585Y-70330497D01*
X100036381Y-70132104D01*
X100142562Y-69950943D01*
X100282044Y-69793977D01*
X100449464Y-69667244D01*
X100449465Y-69667244D01*
X100449467Y-69667242D01*
X100638400Y-69575603D01*
X100841582Y-69522582D01*
X101051197Y-69510221D01*
X101259201Y-69538991D01*
X101259201Y-69538991D01*
G37*
G36*
X89658418Y-69522582D02*
X89861600Y-69575603D01*
X90050533Y-69667242D01*
X90050535Y-69667244D01*
X90050536Y-69667244D01*
X90217956Y-69793977D01*
X90357438Y-69950943D01*
X90463619Y-70132104D01*
X90532415Y-70330497D01*
X90561185Y-70538501D01*
X90548824Y-70748117D01*
X90495802Y-70951303D01*
X90466105Y-71012528D01*
X90404164Y-71140232D01*
X90404162Y-71140234D01*
X90277429Y-71307654D01*
X90159793Y-71412187D01*
X89249873Y-72073281D01*
X89114104Y-72152857D01*
X88915711Y-72221653D01*
X88707707Y-72250423D01*
X88498092Y-72238062D01*
X88294910Y-72185041D01*
X88228554Y-72152856D01*
X88105977Y-72093402D01*
X88079396Y-72073281D01*
X87938554Y-71966667D01*
X87799072Y-71809701D01*
X87692891Y-71628540D01*
X87624095Y-71430147D01*
X87595325Y-71222143D01*
X87607686Y-71012528D01*
X87660707Y-70809346D01*
X87752346Y-70620414D01*
X87752346Y-70620413D01*
X87752348Y-70620410D01*
X87879081Y-70452990D01*
X87996717Y-70348457D01*
X88021437Y-70330497D01*
X88906636Y-69687363D01*
X88940966Y-69667242D01*
X89042405Y-69607787D01*
X89240798Y-69538991D01*
X89448802Y-69510221D01*
X89658418Y-69522582D01*
X89658418Y-69522582D01*
G37*
G36*
X95968974Y-67824424D02*
X96169912Y-67885379D01*
X96169914Y-67885380D01*
X96355103Y-67984366D01*
X96397386Y-68019067D01*
X96517423Y-68117577D01*
X96615933Y-68237614D01*
X96650634Y-68279897D01*
X96650635Y-68279899D01*
X96749621Y-68465088D01*
X96810576Y-68666026D01*
X96831157Y-68875000D01*
X96810576Y-69083974D01*
X96749621Y-69284912D01*
X96749620Y-69284914D01*
X96650634Y-69470103D01*
X96617710Y-69510221D01*
X96517423Y-69632423D01*
X96397386Y-69730933D01*
X96355103Y-69765634D01*
X96355101Y-69765635D01*
X96169912Y-69864621D01*
X95968974Y-69925576D01*
X95812364Y-69941000D01*
X94687636Y-69941000D01*
X94531026Y-69925576D01*
X94330088Y-69864621D01*
X94144899Y-69765635D01*
X94144897Y-69765634D01*
X94102614Y-69730933D01*
X93982577Y-69632423D01*
X93882290Y-69510221D01*
X93849366Y-69470103D01*
X93750380Y-69284914D01*
X93750379Y-69284912D01*
X93689424Y-69083974D01*
X93668843Y-68875000D01*
X93689424Y-68666026D01*
X93750379Y-68465088D01*
X93849365Y-68279899D01*
X93849366Y-68279897D01*
X93884067Y-68237614D01*
X93982577Y-68117577D01*
X94102614Y-68019067D01*
X94144897Y-67984366D01*
X94330086Y-67885380D01*
X94330088Y-67885379D01*
X94531026Y-67824424D01*
X94687636Y-67809000D01*
X95812364Y-67809000D01*
X95968974Y-67824424D01*
X95968974Y-67824424D01*
G37*
M02*
