G04 #@! TF.GenerationSoftware,KiCad,Pcbnew,(5.0.2)-1*
G04 #@! TF.CreationDate,2019-04-02T21:27:11-07:00*
G04 #@! TF.ProjectId,5670-6922-adapter,35363730-2d36-4393-9232-2d6164617074,rev?*
G04 #@! TF.SameCoordinates,Original*
G04 #@! TF.FileFunction,Copper,L2,Bot*
G04 #@! TF.FilePolarity,Positive*
%FSLAX46Y46*%
G04 Gerber Fmt 4.6, Leading zero omitted, Abs format (unit mm)*
G04 Created by KiCad (PCBNEW (5.0.2)-1) date 4/2/2019 9:27:11 PM*
%MOMM*%
%LPD*%
G01*
G04 APERTURE LIST*
G04 #@! TA.AperFunction,ComponentPad*
%ADD10C,2.030000*%
G04 #@! TD*
G04 #@! TA.AperFunction,Conductor*
%ADD11C,2.030000*%
G04 #@! TD*
G04 #@! TA.AperFunction,ComponentPad*
%ADD12O,3.050000X2.030000*%
G04 #@! TD*
G04 #@! TA.AperFunction,Conductor*
%ADD13C,0.508000*%
G04 #@! TD*
G04 #@! TA.AperFunction,Conductor*
%ADD14C,0.762000*%
G04 #@! TD*
G04 APERTURE END LIST*
D10*
G04 #@! TO.P,J1,1*
G04 #@! TO.N,Heater1*
X101421745Y-87869678D03*
D11*
G04 #@! TD*
G04 #@! TO.N,Heater1*
G04 #@! TO.C,J1*
X101834344Y-87569908D02*
X101009146Y-88169448D01*
D10*
G04 #@! TO.P,J1,2*
G04 #@! TO.N,Cathode2*
X105236093Y-82619678D03*
D11*
G04 #@! TD*
G04 #@! TO.N,Cathode2*
G04 #@! TO.C,J1*
X105393692Y-82134639D02*
X105078494Y-83104717D01*
D10*
G04 #@! TO.P,J1,3*
G04 #@! TO.N,Grid2*
X105236093Y-76130322D03*
D11*
G04 #@! TD*
G04 #@! TO.N,Grid2*
G04 #@! TO.C,J1*
X105078494Y-75645283D02*
X105393692Y-76615361D01*
D10*
G04 #@! TO.P,J1,4*
G04 #@! TO.N,Plate2*
X101421745Y-70880322D03*
D11*
G04 #@! TD*
G04 #@! TO.N,Plate2*
G04 #@! TO.C,J1*
X101009146Y-70580552D02*
X101834344Y-71180092D01*
D12*
G04 #@! TO.P,J1,5*
G04 #@! TO.N,Shield*
X95250000Y-68875000D03*
D10*
G04 #@! TO.P,J1,6*
G04 #@! TO.N,Plate1*
X89078255Y-70880322D03*
D11*
G04 #@! TD*
G04 #@! TO.N,Plate1*
G04 #@! TO.C,J1*
X89490854Y-70580552D02*
X88665656Y-71180092D01*
D10*
G04 #@! TO.P,J1,7*
G04 #@! TO.N,Grid1*
X85263907Y-76130322D03*
D11*
G04 #@! TD*
G04 #@! TO.N,Grid1*
G04 #@! TO.C,J1*
X85421506Y-75645283D02*
X85106308Y-76615361D01*
D10*
G04 #@! TO.P,J1,8*
G04 #@! TO.N,Cathode1*
X85263907Y-82619678D03*
D11*
G04 #@! TD*
G04 #@! TO.N,Cathode1*
G04 #@! TO.C,J1*
X85106308Y-82134639D02*
X85421506Y-83104717D01*
D10*
G04 #@! TO.P,J1,9*
G04 #@! TO.N,Heater2*
X89078255Y-87869678D03*
D11*
G04 #@! TD*
G04 #@! TO.N,Heater2*
G04 #@! TO.C,J1*
X88665656Y-87569908D02*
X89490854Y-88169448D01*
D10*
G04 #@! TO.P,J2,9*
G04 #@! TO.N,Shield*
X91755617Y-84184606D03*
G04 #@! TO.P,J2,8*
G04 #@! TO.N,Cathode1*
X89595969Y-81212106D03*
G04 #@! TO.P,J2,7*
G04 #@! TO.N,Grid1*
X89595969Y-77537894D03*
G04 #@! TO.P,J2,6*
G04 #@! TO.N,Plate1*
X91755617Y-74565394D03*
G04 #@! TO.P,J2,5*
G04 #@! TO.N,Heater2*
X95250000Y-73430000D03*
G04 #@! TO.P,J2,4*
G04 #@! TO.N,Heater1*
X98744383Y-74565394D03*
G04 #@! TO.P,J2,3*
G04 #@! TO.N,Cathode2*
X100904031Y-77537894D03*
G04 #@! TO.P,J2,2*
G04 #@! TO.N,Grid2*
X100904031Y-81212106D03*
G04 #@! TO.P,J2,1*
G04 #@! TO.N,Plate2*
X98744383Y-84184606D03*
G04 #@! TD*
D13*
G04 #@! TO.N,Shield*
X91716173Y-78486000D02*
X92005010Y-77470000D01*
X92005010Y-77470000D02*
X92202000Y-77027313D01*
X92202000Y-77027313D02*
X93192709Y-75565000D01*
X93535500Y-74168000D02*
X93388590Y-75057000D01*
X93388590Y-75057000D02*
X93192709Y-75565000D01*
X93577991Y-73025000D02*
X93535500Y-73533000D01*
X93535500Y-74168000D02*
X93535500Y-73533000D01*
X91669086Y-78867000D02*
X91632312Y-79629000D01*
X91755617Y-84184606D02*
X91632312Y-79629000D01*
X91669086Y-78867000D02*
X91716173Y-78486000D01*
X93577991Y-73025000D02*
X93677243Y-72644000D01*
X93808459Y-72263000D02*
X95250000Y-68875000D01*
X93677243Y-72644000D02*
X93808459Y-72263000D01*
D14*
G04 #@! TO.N,Plate2*
X98744383Y-84184606D02*
X99026664Y-79883000D01*
X100114841Y-75692000D02*
X99597494Y-76327000D01*
X99597494Y-76327000D02*
X99304350Y-76835000D01*
X99304350Y-76835000D02*
X99162860Y-77343000D01*
X99095347Y-78232000D02*
X99162860Y-77343000D01*
X99058741Y-78994000D02*
X99026664Y-79883000D01*
X99095347Y-78232000D02*
X99058741Y-78994000D01*
X100114841Y-75692000D02*
X100363300Y-75184000D01*
X100363300Y-75184000D02*
X100496473Y-74803000D01*
X100742793Y-73914000D02*
X101421745Y-70880322D01*
X100496473Y-74803000D02*
X100742793Y-73914000D01*
G04 #@! TO.N,Cathode2*
X105236093Y-82619678D02*
X100904031Y-77537894D01*
G04 #@! TD*
M02*
